<svg width="26" height="31" viewBox="0 0 26 31" fill="none" xmlns="http://www.w3.org/2000/svg">
<path fill-rule="evenodd" clip-rule="evenodd" d="M15.2089 30.1169C18.7981 27.1772 25.5 20.6669 25.5 13.0396C25.5 6.136 19.9036 0.539551 13 0.539551C6.09644 0.539551 0.5 6.136 0.5 13.0396C0.5 20.6669 7.2019 27.1772 10.7911 30.1169C12.0925 31.1827 13.9075 31.1827 15.2089 30.1169ZM13 15.8173C15.3013 15.8173 17.1667 13.9519 17.1667 11.6507C17.1667 9.34948 15.3013 7.48399 13 7.48399C10.6988 7.48399 8.83333 9.34948 8.83333 11.6507C8.83333 13.9519 10.6988 15.8173 13 15.8173Z" fill="#36C5F0"/>
</svg>
