<svg width="32" height="26" viewBox="0 0 32 26" fill="none" xmlns="http://www.w3.org/2000/svg">
<path fill-rule="evenodd" clip-rule="evenodd" d="M4.88883 0.358856C2.58765 0.358856 0.722168 2.22434 0.722168 4.52552V21.1922C0.722168 23.4934 2.58765 25.3589 4.88883 25.3589H27.1111C29.4123 25.3589 31.2777 23.4934 31.2777 21.1922V4.52552C31.2777 2.22434 29.4123 0.358856 27.1111 0.358856H4.88883ZM8.55579 6.23636C7.96652 5.7453 7.09074 5.82491 6.59967 6.41419C6.10861 7.00347 6.18822 7.87925 6.7775 8.37031L13.3326 13.8329C14.8777 15.1205 17.1222 15.1205 18.6674 13.8329L25.2224 8.37031C25.8118 7.87925 25.8913 7.00347 25.4002 6.41419C24.9093 5.82491 24.0334 5.7453 23.4441 6.23636L16.8891 11.6989C16.3741 12.1282 15.6259 12.1282 15.1108 11.6989L8.55579 6.23636Z" fill="#FF9637"/>
</svg>
