<svg width="28" height="29" viewBox="0 0 28 29" fill="none" xmlns="http://www.w3.org/2000/svg">
<path fill-rule="evenodd" clip-rule="evenodd" d="M27.042 25.2054L24.3961 27.8511C24.3961 27.8511 17.5216 30.7973 7.70059 20.9765C-2.12034 11.1555 0.825941 4.2809 0.825941 4.2809L3.47168 1.63516C4.66698 0.439855 6.64384 0.580341 7.65809 1.93267L10.1835 5.29985C11.0129 6.40574 10.9029 7.95323 9.92543 8.9307L7.70059 11.1555C7.70059 11.1555 7.70059 13.1197 11.6289 17.048C15.5574 20.9765 17.5216 20.9765 17.5216 20.9765L19.7464 18.7516C20.7238 17.7741 22.2713 17.6641 23.3772 18.4936L26.7443 21.019C28.0967 22.0332 28.2372 24.0101 27.042 25.2054Z" fill="#7571FF"/>
</svg>
